<?xml version="1.0" encoding="utf-8"?>
<!-- Generator: Adobe Illustrator 23.0.6, SVG Export Plug-In . SVG Version: 6.00 Build 0)  -->
<svg version="1.1" id="Слой_1" xmlns="http://www.w3.org/2000/svg" xmlns:xlink="http://www.w3.org/1999/xlink" x="0px" y="0px"
	 viewBox="0 0 25 25" style="enable-background:new 0 0 25 25;" xml:space="preserve">
<style type="text/css">
	.st0{display:none;}
	.st1{display:inline;fill:#34AE72;}
	.st2{display:inline;}
	.st3{fill:#FFFFFF;}
	.st4{fill:#FB3A7A;}
	.st5{fill:#FB3A7A;stroke:#FFFFFF;stroke-miterlimit:10;}
	.st6{fill-rule:evenodd;clip-rule:evenodd;fill:#FFFFFF;}
	.st7{display:inline;fill:#36AE72;}
	.st8{display:inline;fill:#FFFFFF;}
	.st9{display:inline;fill:#37AE72;}
</style>
<g class="st0">
	<circle class="st1" cx="12.5" cy="12.5" r="12.5"/>
	<g class="st2">
		<g>
			<path class="st3" d="M12.5,6.1c2.1,0,2.4,0,3.2,0.1c0.8,0,1.2,0.2,1.5,0.3C17.5,6.5,17.8,6.7,18,7c0.3,0.3,0.5,0.5,0.6,0.9
				c0.1,0.3,0.2,0.7,0.3,1.5c0,0.8,0,1.1,0,3.2s0,2.3,0,3.2c0,0.8-0.2,1.2-0.3,1.5c-0.1,0.4-0.3,0.6-0.6,0.9
				c-0.3,0.3-0.5,0.5-0.9,0.6c-0.3,0.1-0.7,0.2-1.5,0.3c-0.8,0-1.1,0-3.2,0s-2.3,0-3.2,0c-0.8,0-1.2-0.2-1.5-0.3
				C7.5,18.5,7.2,18.3,7,18c-0.3-0.3-0.4-0.5-0.6-0.9c-0.1-0.3-0.2-0.7-0.3-1.5c0-0.8-0.1-1.1-0.1-3.2s0-2.3,0.1-3.2
				c0-0.8,0.2-1.2,0.3-1.5C6.5,7.5,6.7,7.2,7,7c0.3-0.3,0.5-0.4,0.9-0.6c0.3-0.1,0.7-0.2,1.5-0.3C10.1,6.1,10.4,6.1,12.5,6.1
				 M12.5,4.6c-2.1,0-2.4,0-3.2,0.1C8.4,4.7,7.8,4.8,7.3,5C6.8,5.2,6.4,5.5,6,5.9C5.5,6.4,5.2,6.8,5,7.3C4.8,7.8,4.7,8.4,4.7,9.3
				s-0.1,1.1-0.1,3.2c0,2.1,0,2.4,0.1,3.2c0,0.8,0.2,1.4,0.4,1.9c0.2,0.5,0.5,1,0.9,1.4c0.4,0.4,0.9,0.7,1.4,0.9
				c0.5,0.2,1.1,0.3,1.9,0.4s1.1,0,3.2,0c2.1,0,2.4,0,3.2,0c0.8,0,1.4-0.2,1.9-0.4c0.5-0.2,1-0.5,1.4-0.9c0.4-0.4,0.7-0.9,0.9-1.4
				c0.2-0.5,0.3-1.1,0.4-1.9s0-1.1,0-3.2s0-2.4,0-3.2c0-0.8-0.2-1.4-0.4-1.9c-0.2-0.5-0.5-1-0.9-1.4c-0.4-0.4-0.9-0.7-1.4-0.9
				c-0.5-0.2-1.1-0.3-1.9-0.4C14.9,4.6,14.6,4.6,12.5,4.6L12.5,4.6z"/>
			<path class="st3" d="M12.5,8.5c-2.2,0-4,1.8-4,4s1.8,4,4,4s4-1.8,4-4S14.7,8.5,12.5,8.5z M12.5,15.1c-1.4,0-2.6-1.2-2.6-2.6
				s1.2-2.6,2.6-2.6s2.6,1.2,2.6,2.6S13.9,15.1,12.5,15.1z"/>
			<circle class="st3" cx="16.7" cy="8.3" r="0.9"/>
		</g>
	</g>
</g>
<path id="XMLID_4_" class="st4" d="M12.5,25L12.5,25C5.6,25,0,19.4,0,12.5l0,0C0,5.6,5.6,0,12.5,0l0,0C19.4,0,25,5.6,25,12.5l0,0
	C25,19.4,19.4,25,12.5,25z"/>
<path id="XMLID_6_" class="st5" d="M12.5,18.8"/>
<g id="XMLID_810_">
	<path id="XMLID_811_" class="st6" d="M17.9,14.8c-0.3-0.1-1.7-0.9-2-0.9c-0.3-0.1-0.5-0.1-0.7,0.1c-0.2,0.3-0.8,0.9-0.9,1.1
		c-0.2,0.2-0.3,0.2-0.6,0.1c-0.3-0.1-1.2-0.4-2.4-1.4c-0.9-0.8-1.5-1.7-1.6-2s0-0.4,0.1-0.6c0.1-0.1,0.3-0.3,0.4-0.5
		c0-0.1,0.1-0.1,0.1-0.1c0.1-0.1,0.1-0.2,0.2-0.4c0.1-0.2,0.1-0.4,0-0.5c-0.1-0.1-0.7-1.6-0.9-2.2C9.3,6.9,9.1,7,8.9,7S8.6,7,8.3,7
		C8.1,7,7.8,7.1,7.6,7.3c-0.3,0.3-1,1-1,2.4c0,0.3,0.1,0.7,0.2,1c0.3,1,0.9,1.9,1,2c0.2,0.2,2,3.2,5,4.4c3,1.2,3,0.8,3.5,0.7
		c0.5,0,1.7-0.7,2-1.4c0.3-0.7,0.3-1.3,0.2-1.4C18.4,15,18.1,14.9,17.9,14.8z"/>
</g>
<g class="st0">
	<circle class="st7" cx="12.5" cy="12.5" r="12.5"/>
	<path class="st8" d="M18.6,7.4c0-0.1-0.1-0.2-0.2-0.2c-0.2-0.1-0.5,0-0.5,0S6.2,11.4,5.5,11.9c-0.1,0.1-0.2,0.2-0.2,0.2
		c-0.1,0.3,0.2,0.5,0.2,0.5l3,1c0,0,0.1,0,0.1,0c0.7-0.4,6.9-4.4,7.3-4.5c0.1,0,0.1,0,0.1,0c-0.1,0.5-5.5,5.3-5.5,5.3s0,0,0,0.1h0
		l-0.3,3c0,0-0.1,0.9,0.8,0c0.6-0.6,1.3-1.2,1.6-1.5c1,0.7,2.2,1.5,2.6,1.9c0.2,0.2,0.4,0.2,0.6,0.2c0.5,0,0.6-0.5,0.6-0.5
		s2.1-8.6,2.2-9.7c0-0.1,0-0.2,0-0.3C18.6,7.6,18.6,7.5,18.6,7.4z"/>
</g>
<g id="Слой_3" class="st0">
	<circle class="st9" cx="12.5" cy="12.5" r="12.5"/>
	<g class="st2">
		<g id="WA_Logo_10_">
			<g>
				<path class="st6" d="M18.5,6.6C17,5.1,15,4.3,12.9,4.3C8.5,4.3,5,7.9,5,12.3c0,1.4,0.4,2.8,1.1,4l-1.1,4.1l4.2-1.1
					c1.2,0.6,2.5,1,3.8,1l0,0c4.4,0,7.9-3.6,7.9-7.9C20.8,10.1,20,8.1,18.5,6.6z M12.9,18.8L12.9,18.8c-1.2,0-2.4-0.3-3.4-0.9
					l-0.2-0.1l-2.5,0.6L7.5,16l-0.2-0.3c-0.7-1.1-1-2.3-1-3.5c0-3.6,3-6.6,6.6-6.6c1.8,0,3.4,0.7,4.7,1.9c1.2,1.3,1.9,2.9,1.9,4.7
					C19.5,15.9,16.5,18.8,12.9,18.8z M16.5,13.9c-0.2-0.1-1.2-0.6-1.4-0.6c-0.2-0.1-0.3-0.1-0.4,0.1c-0.1,0.2-0.5,0.6-0.6,0.8
					c-0.1,0.1-0.2,0.1-0.4,0.1s-0.8-0.3-1.6-1c-0.6-0.5-1-1.2-1.1-1.4c-0.1-0.2,0-0.3,0.1-0.4c0.1-0.1,0.2-0.2,0.3-0.4
					c0.1-0.1,0.1-0.2,0.2-0.3s0-0.3,0-0.4s-0.4-1.1-0.6-1.5c-0.2-0.4-0.3-0.3-0.4-0.3c-0.1,0-0.3,0-0.4,0s-0.3,0-0.5,0.2
					s-0.7,0.7-0.7,1.6s0.7,1.9,0.8,2.1s1.4,2.1,3.4,3c0.5,0.2,0.8,0.3,1.1,0.4c0.5,0.2,0.9,0.1,1.3,0.1c0.4-0.1,1.2-0.5,1.3-0.9
					s0.2-0.9,0.1-0.9C16.9,14.1,16.7,14,16.5,13.9z"/>
			</g>
		</g>
	</g>
</g>
</svg>
