<?xml version="1.0" encoding="utf-8"?>
<!-- Generator: Adobe Illustrator 23.0.6, SVG Export Plug-In . SVG Version: 6.00 Build 0)  -->
<svg version="1.1" id="Слой_1" xmlns="http://www.w3.org/2000/svg" xmlns:xlink="http://www.w3.org/1999/xlink" x="0px" y="0px"
	 viewBox="0 0 25 25" style="enable-background:new 0 0 25 25;" xml:space="preserve">
<style type="text/css">
	.st0{fill:#FB3A7A;}
	.st1{fill:#FFFFFF;}
</style>
<circle class="st0" cx="12.5" cy="12.5" r="12.5"/>
<g>
	<g>
		<path class="st1" d="M12.5,6.1c2.1,0,2.4,0,3.2,0.1c0.8,0,1.2,0.2,1.5,0.3C17.5,6.5,17.8,6.7,18,7c0.3,0.3,0.5,0.5,0.6,0.9
			c0.1,0.3,0.2,0.7,0.3,1.5c0,0.8,0,1.1,0,3.2s0,2.3,0,3.2c0,0.8-0.2,1.2-0.3,1.5c-0.1,0.4-0.3,0.6-0.6,0.9
			c-0.3,0.3-0.5,0.5-0.9,0.6c-0.3,0.1-0.7,0.2-1.5,0.3c-0.8,0-1.1,0-3.2,0s-2.3,0-3.2,0c-0.8,0-1.2-0.2-1.5-0.3
			C7.5,18.5,7.2,18.3,7,18c-0.3-0.3-0.4-0.5-0.6-0.9c-0.1-0.3-0.2-0.7-0.3-1.5c0-0.8-0.1-1.1-0.1-3.2s0-2.3,0.1-3.2
			c0-0.8,0.2-1.2,0.3-1.5C6.5,7.5,6.7,7.2,7,7c0.3-0.3,0.5-0.4,0.9-0.6c0.3-0.1,0.7-0.2,1.5-0.3C10.1,6.1,10.4,6.1,12.5,6.1
			 M12.5,4.6c-2.1,0-2.4,0-3.2,0.1C8.4,4.7,7.8,4.8,7.3,5C6.8,5.2,6.4,5.5,6,5.9C5.5,6.4,5.2,6.8,5,7.3C4.8,7.8,4.7,8.4,4.7,9.3
			s-0.1,1.1-0.1,3.2c0,2.1,0,2.4,0.1,3.2c0,0.8,0.2,1.4,0.4,1.9c0.2,0.5,0.5,1,0.9,1.4c0.4,0.4,0.9,0.7,1.4,0.9
			c0.5,0.2,1.1,0.3,1.9,0.4s1.1,0,3.2,0c2.1,0,2.4,0,3.2,0c0.8,0,1.4-0.2,1.9-0.4c0.5-0.2,1-0.5,1.4-0.9c0.4-0.4,0.7-0.9,0.9-1.4
			c0.2-0.5,0.3-1.1,0.4-1.9s0-1.1,0-3.2s0-2.4,0-3.2c0-0.8-0.2-1.4-0.4-1.9c-0.2-0.5-0.5-1-0.9-1.4c-0.4-0.4-0.9-0.7-1.4-0.9
			c-0.5-0.2-1.1-0.3-1.9-0.4C14.9,4.6,14.6,4.6,12.5,4.6L12.5,4.6z"/>
		<path class="st1" d="M12.5,8.5c-2.2,0-4,1.8-4,4s1.8,4,4,4s4-1.8,4-4S14.7,8.5,12.5,8.5z M12.5,15.1c-1.4,0-2.6-1.2-2.6-2.6
			s1.2-2.6,2.6-2.6s2.6,1.2,2.6,2.6S13.9,15.1,12.5,15.1z"/>
		<circle class="st1" cx="16.7" cy="8.3" r="0.9"/>
	</g>
</g>
</svg>
